<svg width="120" height="137" viewBox="0 0 120 137" fill="none" xmlns="http://www.w3.org/2000/svg">
<g opacity="0.5" filter="url(#filter0_d_1_1052)">
<g opacity="0.8" filter="url(#filter1_f_1_1052)">
<path d="M109.567 10.3933C109.831 10.1926 110.003 9.89553 110.046 9.56677C110.089 9.23806 109.999 8.90456 109.796 8.64041C109.593 8.37626 109.294 8.20332 108.965 8.16041C108.636 8.11746 108.305 8.20808 108.043 8.41152C108.043 8.41152 108.043 8.41152 108.043 8.41152C106.063 9.94978 103.963 11.6482 102.039 13.2477C66.8819 43.3026 35.0901 78.0675 13.3315 119.053C12.1564 121.328 11.009 123.652 9.92364 125.968C9.87116 126.08 9.86539 126.209 9.90726 126.326C9.94916 126.442 10.0353 126.538 10.147 126.591C10.2587 126.644 10.387 126.65 10.5039 126.609C10.6209 126.568 10.7169 126.482 10.7705 126.371C10.7705 126.371 10.7705 126.371 10.7705 126.371C11.874 124.077 13.039 121.775 14.2315 119.524C36.2858 78.9658 68.3534 44.6134 103.577 15.1183C105.501 13.5524 107.598 11.8906 109.567 10.3933Z" fill="white"/>
</g>
<path d="M105.821 10.461L106.607 9.8433C107.15 9.41655 107.681 9.00545 108.196 8.60944L108.988 8.00001L110.207 9.58515L109.414 10.1946C108.905 10.5864 108.381 10.9945 107.842 11.4173L107.055 12.0341L105.821 10.461ZM99.5257 15.611L100.293 14.9693C101.369 14.0694 102.412 13.2095 103.418 12.3922L104.194 11.7616L105.455 13.3139L104.679 13.9446C103.681 14.7558 102.645 15.6091 101.575 16.5033L100.808 17.145L99.5257 15.611ZM93.3724 20.9152L94.1247 20.2552C95.1701 19.3383 96.1939 18.4505 97.1937 17.5934L97.9535 16.9425L99.2552 18.4612L98.4953 19.1121C97.5015 19.9642 96.4835 20.8469 95.4438 21.7588L94.6915 22.4188L93.3724 20.9152ZM87.3355 26.3502L88.0728 25.6756C89.092 24.7442 90.0968 23.8348 91.0848 22.9499L91.8297 22.2835L93.1643 23.7731L92.4195 24.4405C91.4365 25.321 90.4362 26.2244 89.422 27.1513L88.6847 27.8259L87.3355 26.3502ZM81.4048 31.9L82.1303 31.2117C83.1269 30.2656 84.1137 29.3379 85.0887 28.4295L85.8205 27.7476L87.1835 29.2114L86.4525 29.8923C85.482 30.7965 84.4991 31.7208 83.5068 32.6627L82.7823 33.3509L81.4048 31.9ZM75.5753 37.5632L76.2879 36.8613C77.2648 35.8993 78.2347 34.9524 79.1967 34.0223L79.9158 33.3277L81.3059 34.7648L80.5869 35.4604C79.6292 36.3864 78.6634 37.3289 77.6908 38.2866L76.9782 38.9885L75.5753 37.5632ZM69.8527 43.3256L70.5526 42.6119C71.5072 41.6373 72.458 40.6752 73.4029 39.7277L74.1091 39.0194L75.5248 40.432L74.8185 41.1403C73.8779 42.0834 72.932 43.0405 71.9818 44.0106L71.282 44.7253L69.8527 43.3256ZM64.2419 49.1867L64.928 48.4595C65.8641 47.4683 66.7983 46.4889 67.7289 45.5214L68.4214 44.8005L69.8633 46.1865L69.1698 46.9074C68.2435 47.8705 67.3143 48.8461 66.3826 49.8326L65.6955 50.56L64.2419 49.1867ZM58.7294 55.1605L59.4018 54.4216C60.3193 53.4129 61.2363 52.4136 62.152 51.4259L62.8318 50.6932L64.299 52.0527L63.6192 52.7863C62.7078 53.7695 61.7949 54.7633 60.8816 55.7672L60.2083 56.5072L58.7294 55.1605ZM53.3409 61.2281L53.9995 60.4756C54.8943 59.453 55.7903 58.4391 56.6863 57.435L57.3523 56.6888L58.8447 58.0208L58.1787 58.766C57.2869 59.7654 56.395 60.7751 55.5045 61.7928L54.8459 62.5453L53.3409 61.2281ZM48.0666 67.4109L48.7104 66.645C49.5849 65.6038 50.4619 64.5698 51.3405 63.5453L51.9908 62.7866L53.5092 64.088L52.858 64.8478C51.9839 65.8671 51.1112 66.8949 50.2412 67.9307L49.5984 68.6966L48.0666 67.4109ZM42.9268 73.6956L43.5539 72.9173C44.4042 71.8601 45.2584 70.8096 46.1154 69.7673L46.7499 68.9952L48.2951 70.2651L47.6596 71.0373C46.8072 72.0741 45.9581 73.119 45.1125 74.1704L44.4855 74.9498L42.9268 73.6956ZM37.923 80.0997L38.5313 79.3062C39.3576 78.2298 40.1896 77.16 41.0253 76.097L41.6429 75.3106L43.2158 76.5469L42.5971 77.3324C41.7661 78.3896 40.94 79.4545 40.1184 80.5247L39.5091 81.3173L37.923 80.0997ZM33.0723 86.6169L33.6618 85.8092C34.4609 84.7144 35.2668 83.6254 36.0777 82.5426L36.6766 81.742L38.2778 82.9408L37.678 83.7414C36.8719 84.8178 36.0713 85.9002 35.2772 86.9883L34.6877 87.7959L33.0723 86.6169ZM28.3875 93.2589L28.9552 92.4363C29.725 91.3217 30.5025 90.2117 31.2868 89.1079L31.8658 88.2922L33.4961 89.4504L32.9171 90.2661C32.1379 91.3629 31.366 92.4655 30.6014 93.5727L30.0327 94.3953L28.3875 93.2589ZM23.8833 100.028L24.4282 99.19C25.1661 98.0543 25.9134 96.9226 26.6683 95.7964L27.2256 94.9659L28.8866 96.0795L28.3293 96.91C27.5797 98.0283 26.8383 99.1515 26.1059 100.279L25.561 101.118L23.8833 100.028ZM19.5847 106.929L20.1028 106.074C20.8048 104.917 21.5177 103.763 22.2396 102.615L22.7712 101.769L24.4645 102.833L23.933 103.68C23.2166 104.82 22.5089 105.964 21.8126 107.112L21.2945 107.967L19.5847 106.929ZM15.5092 113.973L15.9985 113.101C16.6609 111.921 17.3354 110.743 18.0208 109.57L18.5256 108.707L20.2526 109.716L19.7479 110.579C19.0682 111.743 18.3994 112.909 17.7427 114.079L17.2534 114.952L15.5092 113.973ZM11.6909 121.158L12.1474 120.268C12.7651 119.064 13.3967 117.862 14.0405 116.665L14.5135 115.784L16.2757 116.731L15.8018 117.612C15.1639 118.798 14.5392 119.988 13.9275 121.181L13.471 122.071L11.6909 121.158ZM8.33797 120.458L16.0703 124.131L9.0241 128.991L8.33797 120.458Z" fill="white"/>
</g>
<defs>
<filter id="filter0_d_1_1052" x="0.337963" y="0" width="117.869" height="136.991" filterUnits="userSpaceOnUse" color-interpolation-filters="sRGB">
<feFlood flood-opacity="0" result="BackgroundImageFix"/>
<feColorMatrix in="SourceAlpha" type="matrix" values="0 0 0 0 0 0 0 0 0 0 0 0 0 0 0 0 0 0 127 0" result="hardAlpha"/>
<feOffset/>
<feGaussianBlur stdDeviation="4"/>
<feComposite in2="hardAlpha" operator="out"/>
<feColorMatrix type="matrix" values="0 0 0 0 0.980392 0 0 0 0 0.980392 0 0 0 0 0.972549 0 0 0 1 0"/>
<feBlend mode="normal" in2="BackgroundImageFix" result="effect1_dropShadow_1_1052"/>
<feBlend mode="normal" in="SourceGraphic" in2="effect1_dropShadow_1_1052" result="shape"/>
</filter>
<filter id="filter1_f_1_1052" x="5.87959" y="4.14996" width="108.177" height="126.486" filterUnits="userSpaceOnUse" color-interpolation-filters="sRGB">
<feFlood flood-opacity="0" result="BackgroundImageFix"/>
<feBlend mode="normal" in="SourceGraphic" in2="BackgroundImageFix" result="shape"/>
<feGaussianBlur stdDeviation="2" result="effect1_foregroundBlur_1_1052"/>
</filter>
</defs>
</svg>
