<svg width="110" height="118" viewBox="0 0 110 118" fill="none" xmlns="http://www.w3.org/2000/svg">
<g opacity="0.5">
<g opacity="0.8" filter="url(#filter0_f_145_635)">
<path d="M-3.84968 110.967C-4.13032 111.143 -4.32869 111.424 -4.40065 111.748C-4.47263 112.071 -4.4123 112.411 -4.23344 112.693C-4.05459 112.974 -3.77201 113.173 -3.44841 113.245C-3.12478 113.317 -2.78664 113.256 -2.50783 113.076C-2.50783 113.076 -2.50783 113.076 -2.50783 113.076C-0.399133 111.72 1.84377 110.215 3.90222 108.793C41.5911 81.9812 76.3466 50.1793 101.661 11.2897C103.034 9.12822 104.384 6.91497 105.67 4.7044C105.733 4.5975 105.75 4.46994 105.719 4.34997C105.687 4.22999 105.61 4.12742 105.503 4.06464C105.397 4.00186 105.27 3.98397 105.149 4.0147C105.029 4.04545 104.926 4.12231 104.863 4.22857C104.863 4.22857 104.863 4.22857 104.863 4.22857C103.56 6.41506 102.195 8.6039 100.807 10.7409C75.2355 49.1782 40.2419 80.5449 2.5363 106.793C0.480708 108.182 -1.75504 109.651 -3.84968 110.967Z" fill="white"/>
</g>
<path d="M-0.112157 111.232L-0.949969 111.778C-1.52937 112.155 -2.09407 112.517 -2.64217 112.866L-3.48576 113.402L-4.55893 111.715L-3.71534 111.178C-3.17308 110.834 -2.61483 110.474 -2.0408 110.1L-1.20202 109.556L-0.112157 111.232ZM6.61559 106.662L5.79416 107.233C4.64209 108.034 3.52703 108.798 2.45271 109.522L1.62357 110.082L0.505222 108.423L1.33437 107.864C2.40073 107.145 3.50848 106.387 4.65321 105.591L5.47464 105.02L6.61559 106.662ZM13.2159 101.926L12.408 102.516C11.2852 103.337 10.1865 104.13 9.11455 104.895L8.29987 105.476L7.13829 103.847L7.95297 103.267C9.01862 102.506 10.111 101.717 11.2277 100.902L12.0356 100.311L13.2159 101.926ZM19.7119 97.0489L18.9175 97.6553C17.8197 98.4924 16.738 99.3089 15.6753 100.103L14.8741 100.7L13.6772 99.0978L14.4783 98.4993C15.5356 97.7096 16.6123 96.8986 17.7048 96.0655L18.4992 95.4592L19.7119 97.0489ZM26.1124 92.0481L25.3286 92.6692C24.2518 93.5231 23.1865 94.3593 22.1347 95.1775L21.3451 95.7917L20.1176 94.2125L20.9062 93.5993C21.9532 92.7849 23.0144 91.9517 24.0864 91.1016L24.8692 90.4805L26.1124 92.0481ZM32.4221 86.9254L31.6499 87.5612C30.5914 88.4325 29.5411 89.2895 28.5003 90.1305L27.7224 90.7584L26.4654 89.2034L27.2434 88.5745C28.2796 87.7372 29.3254 86.8843 30.3792 86.0169L31.1514 85.381L32.4221 86.9254ZM38.6341 81.6944L37.8735 82.343C36.8361 83.2289 35.8036 84.1028 34.7782 84.9625L34.0118 85.6053L32.7273 84.0725L33.4937 83.4298C34.5144 82.574 35.5416 81.7046 36.5743 80.8228L37.3349 80.1732L38.6341 81.6944ZM44.7436 76.3551L43.9956 77.0185C42.9751 77.9225 41.9575 78.8151 40.9447 79.696L40.1908 80.3525L38.8778 78.8439L39.6326 78.1874C40.6408 77.3105 41.6531 76.4213 42.6688 75.5215L43.4178 74.8581L44.7436 76.3551ZM50.7652 70.8949L50.0298 71.5711C49.0262 72.4942 48.024 73.4081 47.0243 74.3105L46.282 74.9798L44.9415 73.4954L45.6837 72.8251C46.6788 71.9268 47.6766 71.018 48.6754 70.0992L49.4118 69.422L50.7652 70.8949ZM56.6716 65.3301L55.9487 66.0211C54.9666 66.9601 53.984 67.8904 53.0023 68.8108L52.2726 69.4949L50.9045 68.0356L51.6341 67.3525C52.6112 66.4364 53.5893 65.5099 54.5668 64.5753L55.2896 63.8844L56.6716 65.3301ZM62.4745 59.6404L61.7652 60.3462C60.8016 61.3055 59.8361 62.2574 58.87 63.1999L58.1549 63.8977L56.7581 62.4665L57.4743 61.7677C58.4355 60.83 59.3961 59.8838 60.3547 58.9295L61.063 58.2237L62.4745 59.6404ZM68.1525 53.8374L67.4586 54.5569C66.5178 55.5344 65.5736 56.5048 64.6274 57.4668L63.9268 58.1795L62.5005 56.7773L63.2021 56.0646C64.1433 55.1077 65.0819 54.1424 66.0176 53.1702L66.7114 52.4497L68.1525 53.8374ZM73.7056 47.9033L73.0292 48.6396C72.1105 49.6383 71.1867 50.6299 70.2599 51.6145L69.5748 52.3429L68.118 50.9717L68.804 50.2443C69.7257 49.2652 70.6432 48.2779 71.5566 47.2849L72.234 46.5496L73.7056 47.9033ZM79.1162 41.843L78.4573 42.5951C77.5641 43.6145 76.6646 44.6276 75.7607 45.6341L75.093 46.3783L73.6046 45.042L74.2733 44.2978C75.1718 43.2974 76.0655 42.2903 76.9531 41.2772L77.6121 40.5251L79.1162 41.843ZM84.3728 35.6436L83.7342 36.4125C82.8685 37.4543 81.9953 38.4908 81.1161 39.5206L80.4669 40.2815L78.9459 38.983L79.5952 38.2221C80.4688 37.1989 81.3356 36.1691 82.1956 35.1343L82.8351 34.3655L84.3728 35.6436ZM89.4607 29.3012L88.8435 30.0878C88.0076 31.1535 87.1627 32.2143 86.3107 33.2689L85.6818 34.0466L84.1263 32.7898L84.7552 32.0121C85.6012 30.9649 86.4396 29.912 87.2693 28.8543L87.8865 28.0667L89.4607 29.3012ZM94.3556 22.8096L93.7636 23.615C92.9616 24.7051 92.1489 25.7912 91.3278 26.8712L90.7231 27.6667L89.1311 26.4564L89.7358 25.6599C90.5506 24.5882 91.3572 23.5114 92.1528 22.43L92.7448 21.6246L94.3556 22.8096ZM99.041 16.156L98.4761 16.9812C97.7114 18.0979 96.9349 19.2109 96.148 20.3184L95.5686 21.1327L93.938 19.9748L94.5175 19.1595C95.2978 18.0613 96.0678 16.9584 96.8258 15.8515L97.3906 15.0263L99.041 16.156ZM103.483 9.33916L102.949 10.1851C102.227 11.3292 101.491 12.4697 100.743 13.6054L100.194 14.4405L98.5226 13.3408L99.0729 12.5058C99.8137 11.3806 100.542 10.2505 101.257 9.11752L101.791 8.27158L103.483 9.33916ZM106.76 10.3337L99.3848 5.98872L106.835 1.77347L106.76 10.3337Z" fill="white"/>
</g>
<defs>
<filter id="filter0_f_145_635" x="-8.4303" y="0" width="118.164" height="117.274" filterUnits="userSpaceOnUse" color-interpolation-filters="sRGB">
<feFlood flood-opacity="0" result="BackgroundImageFix"/>
<feBlend mode="normal" in="SourceGraphic" in2="BackgroundImageFix" result="shape"/>
<feGaussianBlur stdDeviation="2" result="effect1_foregroundBlur_145_635"/>
</filter>
</defs>
</svg>
