<svg width="370" height="51" viewBox="0 0 370 51" fill="none" xmlns="http://www.w3.org/2000/svg">
<foreignObject x="122" y="-4" width="127" height="56"><div xmlns="http://www.w3.org/1999/xhtml" style="backdrop-filter:blur(2px);clip-path:url(#bgblur_0_198_658_clip_path);height:100%;width:100%"></div></foreignObject><rect data-figma-bg-blur-radius="4" width="119" height="48" rx="24" transform="matrix(1 0 0 -1 126 48)" fill="#8A8A8A" fill-opacity="0.4"/>
<foreignObject x="-4" y="-4" width="56" height="56"><div xmlns="http://www.w3.org/1999/xhtml" style="backdrop-filter:blur(2px);clip-path:url(#bgblur_1_198_658_clip_path);height:100%;width:100%"></div></foreignObject><rect data-figma-bg-blur-radius="4" width="48" height="48" rx="24" transform="matrix(1 0 0 -1 0 48)" fill="#8A8A8A" fill-opacity="0.4"/>
<foreignObject x="318" y="-4" width="56" height="56"><div xmlns="http://www.w3.org/1999/xhtml" style="backdrop-filter:blur(2px);clip-path:url(#bgblur_2_198_658_clip_path);height:100%;width:100%"></div></foreignObject><rect data-figma-bg-blur-radius="4" width="48" height="48" rx="24" transform="matrix(1 0 0 -1 322 48)" fill="#8A8A8A" fill-opacity="0.4"/>
<g filter="url(#filter3_d_198_658)">
<rect width="57" height="42" rx="21" transform="matrix(1 0 0 -1 128 45)" fill="white"/>
</g>
<path d="M166.929 24.5003C166.929 21.7342 165.83 19.081 163.875 17.1247C163.555 16.8051 163.556 16.2872 163.876 15.9677C164.195 15.6484 164.713 15.6482 165.033 15.9677C167.295 18.2309 168.566 21.3003 168.566 24.5003C168.566 27.7002 167.295 30.7691 165.033 33.0321C164.713 33.3517 164.195 33.3515 163.876 33.0321C163.556 32.7127 163.555 32.1947 163.875 31.8751C165.83 29.919 166.929 27.2663 166.929 24.5003ZM154.864 15.9861C155.109 15.7896 155.446 15.7516 155.73 15.8878C156.013 16.0242 156.193 16.311 156.193 16.6253V32.3753C156.193 32.6895 156.013 32.9757 155.73 33.112C155.446 33.2483 155.109 33.2102 154.864 33.0137L149.463 28.6935H145.25C144.798 28.6935 144.432 28.327 144.432 27.8753V21.1253C144.432 20.6735 144.798 20.3071 145.25 20.3071H149.462L154.864 15.9861ZM150.261 21.7637C150.116 21.8798 149.936 21.9435 149.75 21.9435H146.068V27.0571H149.75L149.888 27.0683C150.024 27.0916 150.153 27.1492 150.261 27.2361L154.557 30.6718V18.3272L150.261 21.7637ZM161.312 24.4947C161.312 23.2201 160.805 21.9972 159.904 21.0958C159.584 20.7762 159.584 20.2582 159.904 19.9388C160.223 19.6193 160.742 19.6192 161.062 19.9388C162.269 21.1471 162.948 22.7863 162.948 24.4947C162.948 26.203 162.269 27.8417 161.062 29.0499C160.742 29.3694 160.223 29.3693 159.904 29.0499C159.584 28.7304 159.584 28.2124 159.904 27.8929C160.805 26.9916 161.312 25.7692 161.312 24.4947Z" fill="#B8001F"/>
<path d="M209.9 16.1695C210.14 15.9837 210.469 15.9476 210.746 16.0764C211.023 16.2053 211.2 16.4767 211.2 16.7743V31.2256C211.2 31.5232 211.023 31.7947 210.746 31.9236C210.469 32.0524 210.14 32.0163 209.9 31.8305L204.786 27.8712H200.8C200.358 27.8712 200 27.5245 200 27.097V20.9035C200 20.476 200.358 20.1293 200.8 20.1293H204.786L209.9 16.1695ZM205.566 21.5078C205.424 21.6175 205.248 21.6777 205.067 21.6777H201.6V26.3229H205.067L205.134 26.3253C205.292 26.3382 205.442 26.3962 205.566 26.4922L209.6 29.615V18.385L205.566 21.5078ZM222.634 20.3562C222.947 20.0538 223.453 20.0538 223.766 20.3562C224.078 20.6585 224.078 21.1486 223.766 21.4509L221.131 24.0003L223.766 26.5497C224.078 26.852 224.078 27.3421 223.766 27.6444C223.453 27.9466 222.947 27.9466 222.634 27.6444L220 25.095L217.366 27.6444C217.053 27.9466 216.547 27.9466 216.234 27.6444C215.922 27.3421 215.922 26.852 216.234 26.5497L218.869 24.0003L216.234 21.4509C215.922 21.1486 215.922 20.6585 216.234 20.3562C216.547 20.0538 217.053 20.0538 217.366 20.3562L220 22.9055L222.634 20.3562Z" fill="#FAFAF8"/>
<path d="M24.8625 14.3086C25.2443 13.9096 25.8775 13.8957 26.2766 14.2774C26.6756 14.6592 26.6896 15.2924 26.3079 15.6915L18.0002 24.377L26.2756 32.2764C26.6751 32.6577 26.69 33.291 26.3088 33.6905C25.9275 34.0899 25.2943 34.1049 24.8948 33.7237L16.6184 25.8233C15.8192 25.06 15.791 23.7928 16.5549 22.9942L24.8625 14.3086Z" fill="#FAFAF8"/>
<path d="M336.293 14.2929C336.683 13.9024 337.316 13.9024 337.707 14.2929L356.707 33.2929C357.097 33.6834 357.097 34.3164 356.707 34.707C356.316 35.0975 355.683 35.0975 355.293 34.707L336.293 15.707C335.902 15.3164 335.902 14.6834 336.293 14.2929Z" fill="white"/>
<path d="M356.707 14.2929C357.098 14.6834 357.098 15.3164 356.707 15.707L337.707 34.707C337.317 35.0975 336.684 35.0975 336.293 34.707C335.903 34.3164 335.903 33.6834 336.293 33.2929L355.293 14.2929C355.684 13.9024 356.317 13.9024 356.707 14.2929Z" fill="white"/>
<defs>
<clipPath id="bgblur_0_198_658_clip_path" transform="translate(-122 4)"><rect width="119" height="48" rx="24" transform="matrix(1 0 0 -1 126 48)"/>
</clipPath><clipPath id="bgblur_1_198_658_clip_path" transform="translate(4 4)"><rect width="48" height="48" rx="24" transform="matrix(1 0 0 -1 0 48)"/>
</clipPath><clipPath id="bgblur_2_198_658_clip_path" transform="translate(-318 4)"><rect width="48" height="48" rx="24" transform="matrix(1 0 0 -1 322 48)"/>
</clipPath><filter id="filter3_d_198_658" x="126" y="1" width="65" height="50" filterUnits="userSpaceOnUse" color-interpolation-filters="sRGB">
<feFlood flood-opacity="0" result="BackgroundImageFix"/>
<feColorMatrix in="SourceAlpha" type="matrix" values="0 0 0 0 0 0 0 0 0 0 0 0 0 0 0 0 0 0 127 0" result="hardAlpha"/>
<feOffset dx="2" dy="2"/>
<feGaussianBlur stdDeviation="2"/>
<feComposite in2="hardAlpha" operator="out"/>
<feColorMatrix type="matrix" values="0 0 0 0 0 0 0 0 0 0 0 0 0 0 0 0 0 0 0.25 0"/>
<feBlend mode="normal" in2="BackgroundImageFix" result="effect1_dropShadow_198_658"/>
<feBlend mode="normal" in="SourceGraphic" in2="effect1_dropShadow_198_658" result="shape"/>
</filter>
</defs>
</svg>
