<svg width="51" height="81" viewBox="0 0 51 81" fill="none" xmlns="http://www.w3.org/2000/svg">

<g id="&#228;&#189;&#156;&#229;&#147;&#129;&#233;&#160;&#129;&#239;&#188;&#191;ehms">
<g id="Design challenge">
<g id="Frame 189">
<g id="Frame 194">
<g id="Frame 188">
<g id="Group 37014">
<g id="Frame 199">
<rect x="-41.5" y="-43.5" width="533" height="560" rx="19.5" fill="white"/>
<rect x="-41.5" y="-43.5" width="533" height="560" rx="19.5" stroke="#D9D9D9"/>
<g id="Frame 183">
<g id="Frame 182">
<g id="Group 37054">
<path id="Rectangle 4235" d="M0 7.36363C0 3.29681 3.26193 0 7.28571 0H43.7143C47.7381 0 51 3.29681 51 7.36364V73.6364C51 77.7032 47.7381 81 43.7143 81H7.28571C3.26193 81 0 77.7032 0 73.6364V7.36363Z" fill="#FFDC4F" fill-opacity="0.64"/>
<path id="Vector 131 (Stroke)" d="M36.3474 8.42432C37.408 8.42432 38.2678 9.42835 38.2678 10.6669C38.2678 11.9054 37.408 12.9095 36.3474 12.9095H17.1431C16.0825 12.9095 15.2227 11.9054 15.2227 10.6669C15.2227 9.42835 16.0825 8.42432 17.1431 8.42432H36.3474Z" fill="#A68E04"/>
<path id="Ellipse 232" d="M30.2018 68.792C30.2018 70.7519 28.6544 72.3406 26.7455 72.3406C24.8365 72.3406 23.2891 70.7519 23.2891 68.792C23.2891 66.8322 24.8365 65.2434 26.7455 65.2434C28.6544 65.2434 30.2018 66.8322 30.2018 68.792Z" fill="#A68E04"/>
</g>
</g>
</g>
</g>
</g>
</g>
</g>
</g>
</g>
</g>
</svg>
